PathFileType	4	(X/Y/Z)	/Users/niels/Desktop/University/Third Semester/Perception and Action/Exam/Gymnastics Motion Tracking/Code for Gym Tracking/Analyzed Data/Webcam_Backflip/id2006_1_baseline_Sports2D/id2006_1_baseline_Sports2D_px_person00.trc
DataRate	CameraRate	NumFrames	NumMarkers	Units	OrigDataRate	OrigDataStartFrame	OrigNumFrames
29.782608695652176	29.782608695652176	9	22	m	29.782608695652176	120	138
Frame#	Time	Hip			RHip			RKnee			RAnkle			RBigToe			RSmallToe			RHeel			LHip			LKnee			LAnkle			LBigToe			LSmallToe			LHeel			Neck			Head			Nose			RShoulder			RElbow			RWrist			LShoulder			LElbow			LWrist		
		X1	Y1	Z1	X2	Y2	Z2	X3	Y3	Z3	X4	Y4	Z4	X5	Y5	Z5	X6	Y6	Z6	X7	Y7	Z7	X8	Y8	Z8	X9	Y9	Z9	X10	Y10	Z10	X11	Y11	Z11	X12	Y12	Z12	X13	Y13	Z13	X14	Y14	Z14	X15	Y15	Z15	X16	Y16	Z16	X17	Y17	Z17	X18	Y18	Z18	X19	Y19	Z19	X20	Y20	Z20	X21	Y21	Z21	X22	Y22	Z22
120	4.02919708029197	0.9517692791274548	-0.7013667324172609	0.0	0.9103933286068497	-0.7042483242622861	0.0	1.2146823273774665	-0.8952639490541152	0.0	1.1414172610780138	-1.0822788655802815	0.0	1.4458745846700296	-1.0090816788432073	0.0	1.4023494278959099	-1.0308126838707568	0.0	1.1417996830877992	-1.0934430266344561	0.0	0.9784171664450646	-0.7085749060303493	0.0	0.9652396720267111	-1.0452605321581365	0.0	1.2010002493550023	-1.0751279197833024	0.0	1.5434415423720642	-0.6982986912694983	0.0	1.476778544663521	-0.9389071817473089	0.0	1.1626018616952796	-0.8475920627553406	0.0	0.9741954488596202	-0.2998894105886712	0.0	1.0033276189730715	-0.12423645543046327	0.0	1.0117529560083387	-0.21070977692758902	0.0	0.8695204519019284	-0.331137002610116	0.0	0.7654505017567308	-0.508253821171529	0.0	0.8762046510413994	-0.6758013265055709	0.0	1.0616554098012698	-0.36991182907077763	0.0	1.1475042220929905	-0.5265772667516156	0.0	1.1204711326886454	-0.5436986329506092	0.0
121	4.062773722627736	0.9508110744913081	-0.709160041643058	0.0	0.9116166322700578	-0.7095465032242918	0.0	1.198212210544861	-0.9368615023772515	0.0	1.1316577892584465	-1.0836217886600514	0.0	1.446252648849035	-1.008237355108538	0.0	1.4028339643852785	-1.0299430675535421	0.0	1.1397844372844663	-1.0926167155530415	0.0	0.9769422384678398	-0.7147717795641705	0.0	0.9633447350822957	-1.0463275610068716	0.0	1.2032000656493576	-1.0728341472520022	0.0	1.5434524990534793	-0.6982980741577406	0.0	1.476876708798082	-0.9385933802900609	0.0	1.1625716957219667	-0.8475936864178021	0.0	0.9744740906499754	-0.2984527974782367	0.0	1.003297956804572	-0.12304714900806743	0.0	1.0133696429640617	-0.20854675191864558	0.0	0.8729370414771436	-0.3283110109037827	0.0	0.7673062624252948	-0.5040674549402474	0.0	0.892710621198153	-0.6700816203672509	0.0	1.0581870807048266	-0.36885359276920354	0.0	1.137559711078946	-0.5216131775928394	0.0	1.1263395874058284	-0.5410162292904434	0.0
122	4.096350364963503	0.950015037060592	-0.7156416134676252	0.0	0.9135329703215946	-0.7132289127880325	0.0	1.1765914285104886	-0.9728130714211349	0.0	1.1257222479183815	-1.0844730123089974	0.0	1.4464875757743996	-1.0077623246782699	0.0	1.4031288461950122	-1.0294505742256066	0.0	1.1400239164315575	-1.091835304850507	0.0	0.9743119637012853	-0.7194147581394935	0.0	0.9604080203070411	-1.0460157541747577	0.0	1.2068881153761708	-1.0708245546509436	0.0	1.5434571908826555	-0.6982974958549656	0.0	1.4769016189530584	-0.9385122940319867	0.0	1.1625651938694248	-0.8475943738240796	0.0	0.9752176290353974	-0.29658794267966604	0.0	1.0040761983872812	-0.12098916781803358	0.0	1.015590909196831	-0.20604947166227489	0.0	0.876989311817772	-0.32559095197080823	0.0	0.7724954749738829	-0.500279926369871	0.0	0.9117949997681372	-0.6636810836178975	0.0	1.054473798054173	-0.3676384370404517	0.0	1.1193696230952763	-0.5202360079592673	0.0	1.1306160809224812	-0.5407717588306783	0.0
123	4.129927007299269	0.9490888679412676	-0.7200413147501816	0.0	0.9159475998629965	-0.7148932471156695	0.0	1.150207354958568	-1.0012817857901724	0.0	1.122867886617931	-1.0849249586361591	0.0	1.446600027172432	-1.0075679123450731	0.0	1.4032658729170737	-1.0292466429593483	0.0	1.141129533113434	-1.0912832701880588	0.0	0.9702448209862198	-0.7219337119005922	0.0	0.95699308694544	-1.044441814215024	0.0	1.2101033056089594	-1.06949479757205	0.0	1.5434580306163324	-0.6982970896108891	0.0	1.4768895684629544	-0.9385491517628134	0.0	1.1625702149407091	-0.8475944892655941	0.0	0.9764532299235905	-0.2945155152178363	0.0	1.0058008599516057	-0.11815983625800935	0.0	1.0185502320817055	-0.20329569215674906	0.0	0.8819115342929519	-0.323187582871597	0.0	0.7812462731346995	-0.4973033808929966	0.0	0.932884690072199	-0.6569056212244673	0.0	1.0507578258411097	-0.36611285182965486	0.0	1.0954126048380421	-0.5224006132928922	0.0	1.1325231951108348	-0.544133292957439	0.0
124	4.163503649635036	0.9481128292326931	-0.722105268258686	0.0	0.9187546133383552	-0.71481731978047	0.0	1.1196146175181956	-1.0214690063795948	0.0	1.1220556082511728	-1.0850901379940965	0.0	1.4466315787177955	-1.007541796159114	0.0	1.4033007641066177	-1.0292168555305514	0.0	1.1422943740464202	-1.0909748729189896	0.0	0.9657369983186954	-0.7224346776951728	0.0	0.9541040636386053	-1.0419914992292294	0.0	1.2103712398806252	-1.0688832959738372	0.0	1.543457053620978	-0.6982968640061401	0.0	1.4768655120360306	-0.9386247519671342	0.0	1.1625786379023784	-0.8475943374505855	0.0	0.9781922329988675	-0.29248404331445776	0.0	1.0085684912307438	-0.11491258439585482	0.0	1.0224535268818995	-0.20048570826841378	0.0	0.8880606539013152	-0.321196386088815	0.0	0.7934740332492791	-0.49562788069478925	0.0	0.9556751497009943	-0.6502584433623841	0.0	1.047137228747479	-0.36427508528812313	0.0	1.0703204248759417	-0.5271304622041603	0.0	1.1317867882573758	-0.5514518998696764	0.0
125	4.197080291970802	0.947347767093524	-0.7220229674135713	0.0	0.9216461047680814	-0.71375436167613	0.0	1.085782733450675	-1.0337622826605462	0.0	1.1223054748167245	-1.0850923706141047	0.0	1.446621221402354	-1.0075921995890815	0.0	1.4032840792063916	-1.0292669922323046	0.0	1.1431693641850706	-1.0908502616442117	0.0	0.962640316517793	-0.7216163318603006	0.0	0.9529848255471081	-1.0390929180869495	0.0	1.2043553712069002	-1.0689023677722045	0.0	1.543455590290942	-0.6982967738425147	0.0	1.476842990470771	-0.9386959465961486	0.0	1.1625861924770566	-0.8475941162745504	0.0	0.9803787572346504	-0.2906889816741686	0.0	1.0124359934111011	-0.11166582676823043	0.0	1.027441565083919	-0.1979108393724633	0.0	0.8957594338378548	-0.3195944328498713	0.0	0.8088466083541964	-0.49563699283791507	0.0	0.9801931007813344	-0.6439930690168929	0.0	1.0435464600578601	-0.3621625255247033	0.0	1.0479730165109051	-0.5327214012396797	0.0	1.1287782897237393	-0.5619157117464928	0.0
126	4.230656934306569	0.9468747453581555	-0.7202373312221195	0.0	0.9241269520592678	-0.7124756183647831	0.0	1.0504139303903952	-1.0397274639515623	0.0	1.122926377232906	-1.085026736152877	0.0	1.4465963586645711	-1.0076605905296931	0.0	1.4032506055521679	-1.029336593802667	0.0	1.1436886126534604	-1.0908351402719572	0.0	0.962225793736988	-0.720385800068823	0.0	0.9546406565942169	-1.0361704871720687	0.0	1.188103971792694	-1.0694538078209106	0.0	1.5434543210384912	-0.6982967639172494	0.0	1.4768271792923262	-0.9387461127836618	0.0	1.162591350196564	-0.8475939261441335	0.0	0.9828715502140684	-0.289248356677062	0.0	1.0174368598876022	-0.10876575318184556	0.0	1.0335401751709918	-0.19583350474009326	0.0	0.905120965883854	-0.31831246812487435	0.0	0.8269858294594814	-0.49741427023037205	0.0	1.0066020110686797	-0.6377834158270175	0.0	1.0398329135769209	-0.35972047492638803	0.0	1.0296836441194919	-0.5372448343618786	0.0	1.1241840013616518	-0.5736313671441237	0.0
127	4.264233576642335	0.946405246840686	-0.7174055207209805	0.0	0.9258735785339071	-0.7115091026609263	0.0	1.0159330863493876	-1.0417028138949147	0.0	1.1235329112709502	-1.0849507956144693	0.0	1.446572216556412	-1.0077179534250529	0.0	1.4032192333715028	-1.0293954505300562	0.0	1.1439209062051843	-1.09086929657096	0.0	0.9639039902408987	-0.719483371875491	0.0	0.9590330394746945	-1.0338058211045493	0.0	1.1584595885536442	-1.0704341842651381	0.0	1.543453474372659	-0.6982967897925528	0.0	1.4768184043616774	-0.9387740625015434	0.0	1.1625941268289304	-0.8475938001305942	0.0	0.9854794340264671	-0.28820453085825193	0.0	1.0235495715749967	-0.1064406271999064	0.0	1.040596851191325	-0.19433087618349915	0.0	0.9159659619227679	-0.31726688620822013	0.0	0.8474898451020073	-0.5006480860158219	0.0	1.0347284099609138	-0.6307907066928548	0.0	1.0357439571272187	-0.3567959015438122	0.0	1.0144729738288507	-0.539420193584812	0.0	1.11859011639544	-0.5841625138290139	0.0
128	4.297810218978102	0.9455109333024009	-0.7143002739507578	0.0	0.9268864891578292	-0.7110803063721367	0.0	0.9849246093830119	-1.0419428562817024	0.0	1.1239698583513384	-1.084891091069331	0.0	1.4465548859749653	-1.0077552862077739	0.0	1.4031971935580494	-1.029433990983779	0.0	1.1439720666222426	-1.0909145786801757	0.0	0.9658798399558987	-0.7192223942634001	0.0	0.9647678282472374	-1.0326129007209284	0.0	1.1162036390163246	-1.0716467050966203	0.0	1.5434530305995313	-0.6982968234646847	0.0	1.4768149016663674	-0.938785299803015	0.0	1.162595171350864	-0.8475937345857111	0.0	0.9880641130798915	-0.28748954596542703	0.0	1.030607308620548	-0.1047408525140044	0.0	1.0482254634973536	-0.193279063611662	0.0	0.9278334471738923	-0.316264079276038	0.0	0.8696765632500524	-0.504623056318693	0.0	1.0635299001091003	-0.621984445513611	0.0	1.0310771169707214	-0.3532565844403987	0.0	1.0008939963210015	-0.5389806827342144	0.0	1.1127513626657433	-0.5909821004896031	0.0
